<svg width="25" height="25" viewBox="0 0 25 25" fill="none" xmlns="http://www.w3.org/2000/svg">
<path d="M12.5 0C5.60769 0 0 5.60769 0 12.5C0 19.3923 5.60769 25 12.5 25C19.3923 25 25 19.3923 25 12.5C25 5.60769 19.3923 0 12.5 0ZM12.5 1.92308C18.3519 1.92308 23.0769 6.64808 23.0769 12.5C23.0769 18.3519 18.3519 23.0769 12.5 23.0769C6.64808 23.0769 1.92308 18.3519 1.92308 12.5C1.92308 6.64808 6.64808 1.92308 12.5 1.92308ZM12.4096 6.73077C9.21346 6.73077 6.64038 9.30385 6.64038 12.5C6.64038 15.6962 9.21346 18.2692 12.4096 18.2692C14.7163 18.2692 16.6885 16.8865 17.6077 14.9337L15.8654 14.1231C15.2452 15.4404 13.95 16.3462 12.4096 16.3462C10.2202 16.3462 8.56346 14.6894 8.56346 12.5C8.56346 10.3106 10.2202 8.65385 12.4096 8.65385C13.95 8.65385 15.2462 9.55865 15.8654 10.8779L17.6087 10.0663C16.6875 8.11346 14.7173 6.73077 12.4096 6.73077Z" fill="black"/>
</svg>
